<svg xmlns="http://www.w3.org/2000/svg" width="93.56" height="1297.031" viewBox="0 0 93.56 1297.031">
  <defs>
    <style>
      .cls-1 {
        fill: #cf0000;
        stroke: #cf0000;
        stroke-linejoin: round;
        stroke-width: 1px;
        fill-rule: evenodd;
      }
    </style>
  </defs>
  <path id="txt_main_1.svg" class="cls-1" d="M1219.62,171.294a80.256,80.256,0,0,0,3.51,14.742,66.066,66.066,0,0,0,5.72,12.376l-8.84,4v20.748h49.92V156.37h-18.2v28.392h-0.52a7.522,7.522,0,0,1-5.98-3.276,22.72,22.72,0,0,1-3.97-8.645,47.6,47.6,0,0,1-1.36-11.739,44.753,44.753,0,0,1,2.47-15.925,19.9,19.9,0,0,1,7.08-9.646,19.089,19.089,0,0,1,11.12-3.185h8.32a19.828,19.828,0,0,1,8.71,1.82,18.058,18.058,0,0,1,6.5,5.369,24.248,24.248,0,0,1,4.09,9.009,52.009,52.009,0,0,1,1.37,12.558,45.9,45.9,0,0,1-.85,9.009,29.7,29.7,0,0,1-2.47,7.553,15.342,15.342,0,0,1-3.96,5.187,8.036,8.036,0,0,1-5.2,1.911v38.4a23.59,23.59,0,0,0,14.82-4.914,37.243,37.243,0,0,0,10.59-13.741,81.532,81.532,0,0,0,6.37-20.384,135.1,135.1,0,0,0,2.15-24.661q0-21.661-5.2-36.946t-15.47-23.3q-10.275-8.011-25.61-8.008-22.89,0-34.58,15.561t-11.7,46.865A122.647,122.647,0,0,0,1219.62,171.294Zm0.39,99.008,12.61,5.278v43.862l-12.61,5.278v42.588l89.44-45.682V274.852l-89.44-45.682V270.3Zm46.93,19.656c1.9,0.847,3.92,1.7,6.04,2.548s4.18,1.666,6.18,2.457,3.77,1.425,5.33,1.911v1.456c-1.22.483-2.62,1.029-4.23,1.638s-3.23,1.211-4.87,1.82-3.21,1.211-4.68,1.82-2.73,1.152-3.77,1.638l-14.3,6.006v-27.3Zm-44.14,177.45q4.365,13.467,12.81,20.566t20.67,7.1V457.944a14.76,14.76,0,0,1-8.78-2.639,16.308,16.308,0,0,1-5.65-7.826,37.96,37.96,0,0,1-1.95-13.195q0-8.19,2.6-13.286a16.916,16.916,0,0,1,7.28-7.553,22.856,22.856,0,0,1,10.79-2.457h8.32a23.6,23.6,0,0,1,10.79,2.366,16.365,16.365,0,0,1,7.28,7.553q2.6,5.187,2.6,13.741a30.8,30.8,0,0,1-2.08,12.1,16.555,16.555,0,0,1-5.85,7.371,15.67,15.67,0,0,1-8.97,2.548v38.4q12.48,0,21.06-7.462t12.93-21.021q4.365-13.56,4.36-31.759,0-32.034-11.7-48.5t-34.58-16.471q-15.21,0-25.55,7.371t-15.53,21.84q-5.2,14.469-5.2,35.763Q1218.45,453.94,1222.8,467.408Zm-2.79,82.264h33.93V593.9h-33.93V634.12h89.44V593.9h-32.63V549.672h32.63V509.45h-89.44v40.222Zm0,144.326h89.44V653.776h-89.44V694Zm0,49.14,12.61,5.278v43.862l-12.61,5.278v42.588l89.44-45.682V747.688l-89.44-45.682v41.132Zm46.93,19.656c1.9,0.847,3.92,1.7,6.04,2.548s4.18,1.666,6.18,2.457,3.77,1.425,5.33,1.911v1.456c-1.22.483-2.62,1.029-4.23,1.638s-3.23,1.211-4.87,1.82-3.21,1.212-4.68,1.82-2.73,1.152-3.77,1.638l-14.3,6.006v-27.3Zm-46.93,125.4h18.72l14.69,21.294-33.41,26.572v47.5l52.65-45.864,36.79,44.954V932.782l-38.22-44.59h38.22V847.97h-89.44v40.222Zm2.66,200.108q4.23,13.92,12.61,21.29t20.74,7.38h53.43v-40.23h-53.04a14.811,14.811,0,0,1-11.83-5.55q-4.68-5.55-4.68-16.65t4.68-16.56a14.909,14.909,0,0,1,11.83-5.46h53.04V992.3h-53.43q-12.36,0-20.74,7.462t-12.61,21.382q-4.215,13.935-4.22,33.58Q1218.45,1074.385,1222.67,1088.3Zm-2.66,120.39h66.56v40.95h22.88v-122.3h-22.88v41.13h-66.56v40.22Zm0,81.54,12.61,5.28v43.86l-12.61,5.28v42.59l89.44-45.69v-46.77l-89.44-45.68v41.13Zm46.93,19.66c1.9,0.84,3.92,1.69,6.04,2.54s4.18,1.67,6.18,2.46,3.77,1.43,5.33,1.91v1.46c-1.22.48-2.62,1.03-4.23,1.64s-3.23,1.21-4.87,1.82-3.21,1.21-4.68,1.82-2.73,1.15-3.77,1.63l-14.3,6.01v-27.3Z" transform="translate(-1217.94 -90.719)"/>
</svg>
