<svg xmlns="http://www.w3.org/2000/svg" width="91.25" height="567.692" viewBox="0 0 91.25 567.692">
  <defs>
    <style>
      .cls-1 {
        fill: #cf0000;
        fill-rule: evenodd;
      }
    </style>
  </defs>
  <path id="txt_main_2.svg" class="cls-1" d="M107.464,1414.84c0-4.13-2.02-5.31-5-5.31h-1.2v2.79h1.2c1.921,0,3.221.13,3.221,2.49,0,2.03-.8,2.73-3.241,2.73H96.022c-2,0-3.32-.23-3.32-2.73,0-2.44,1.24-2.49,3.04-2.49h1.14v-2.79H95.6c-2.921,0-4.661,1.38-4.661,5.31,0,4.47,2.14,5.67,5.421,5.67h5.721C105.1,1420.51,107.464,1419.31,107.464,1414.84Zm-0.18-6.92v-2.78H98.842a2.584,2.584,0,0,1-1.12-2.24,5.842,5.842,0,0,1,.24-1.53H95.6a3.846,3.846,0,0,0-.02.44,3.986,3.986,0,0,0,1.781,3.33h-1.64v2.78h11.562Zm0.16-9.93a3.1,3.1,0,0,0-1.86-3.04c0.54-.08,1.28-0.26,1.7-0.36v-2.55a16.038,16.038,0,0,1-2.78.26H99.223c-2.38,0-3.661,1.14-3.661,4.11,0,3.06,1.18,4.47,3.741,4.52l0.08-2.76H98.8a1.425,1.425,0,0,1-1.64-1.58c0-1.3.68-1.51,2.08-1.51h0.821c0.98,3.22,1.82,5.93,4.7,5.93A2.879,2.879,0,0,0,107.444,1397.99Zm-1.84-1.09a1.294,1.294,0,0,1-1.5,1.33c-1.34,0-1.98-1.43-2.74-3.15h3.281A2.689,2.689,0,0,1,105.6,1396.9Zm1.68-7.98v-2.5l-8.162-2.03,8.162-2.05V1380l-11.562-2.5v2.29l8.482,1.56-8.482,2v2.14l8.522,2-8.522,1.56v2.29Zm0-12.77v-2.78h-16.2v2.78h16.2Zm0.16-14.95c0-2.96-2.28-3.72-4.741-3.72H99.9c-1.38,0-4.341.29-4.341,3.44a4.119,4.119,0,0,0,1.08,2.83H91.081v2.78h16.2v-2.78h-0.84A3.964,3.964,0,0,0,107.444,1361.2Zm-1.68.57a3.8,3.8,0,0,1-.52,1.98H97.822a3.63,3.63,0,0,1-.58-1.87c0-1.43,1.22-1.61,2.661-1.61h2.8C104.4,1360.27,105.764,1360.34,105.764,1361.77Zm1.68-8.47a3.093,3.093,0,0,0-1.86-3.04c0.54-.08,1.28-0.26,1.7-0.37v-2.55a16.038,16.038,0,0,1-2.78.26H99.223c-2.38,0-3.661,1.15-3.661,4.11,0,3.07,1.18,4.47,3.741,4.53l0.08-2.76H98.8a1.428,1.428,0,0,1-1.64-1.59c0-1.3.68-1.5,2.08-1.5h0.821c0.98,3.22,1.82,5.92,4.7,5.92A2.87,2.87,0,0,0,107.444,1353.3Zm-1.84-1.09a1.291,1.291,0,0,1-1.5,1.32c-1.34,0-1.98-1.43-2.74-3.14h3.281A2.689,2.689,0,0,1,105.6,1352.21Zm1.84-10.35c0-3.23-1.38-4.11-3.721-4.11h-0.8v2.52h0.94c1.181,0,2,.16,2,1.54,0,1.24-.5,1.66-2.481,1.66h-3.64c-1.96,0-2.6-.26-2.6-1.64,0-1.22.54-1.56,2.041-1.56h0.7v-2.52H99.2c-2.38,0-3.641.83-3.641,4.11,0,3.64,1.721,4.39,4.621,4.39h2.66C105.624,1346.25,107.444,1345.55,107.444,1341.86Zm-0.18-5.59v-2.78h-4.421l-1.48-1.28,5.921-2.81v-2.78l-7.041,3.43-4.521-3.53v2.91l5,4.06H91.061v2.78h16.2Zm0.02-15.86v-2.78H97.3v-2.29h-1.58v2.29h-0.96c-0.9,0-1.5-.16-1.5-1.25a6.113,6.113,0,0,1,.1-1.04H91.8a10.754,10.754,0,0,0-.14,1.82c0,2.83,1.32,3.25,3.461,3.25h0.6v1.79H97.3v-1.79h9.982Zm0-5.62v-2.78H98.842a2.584,2.584,0,0,1-1.12-2.24,5.842,5.842,0,0,1,.24-1.53H95.6a3.846,3.846,0,0,0-.02.44,3.986,3.986,0,0,0,1.781,3.33h-1.64v2.78h11.562Zm0.16-11.36c0-3.33-1.66-4.37-4.261-4.37h-3.36c-2.6,0-4.261,1.04-4.261,4.37,0,3.35,1.66,4.39,4.261,4.39h3.36C105.784,1307.82,107.444,1306.78,107.444,1303.43Zm-1.58,0c0,1.61-1.24,1.61-2.541,1.61H99.7c-1.3,0-2.561,0-2.561-1.61,0-1.59,1.26-1.59,2.561-1.59h3.62C104.624,1301.84,105.864,1301.84,105.864,1303.43Zm1.42-5.88v-2.57H97.862a3.974,3.974,0,0,1-.94-2.34,1.17,1.17,0,0,1,1.42-1.3h8.942v-2.55H97.862a3.879,3.879,0,0,1-.94-2.34,1.17,1.17,0,0,1,1.42-1.3h8.942v-2.55H98.2a2.429,2.429,0,0,0-2.681,2.65,5.363,5.363,0,0,0,1.46,3.75,2.336,2.336,0,0,0-1.46,2.44,5.329,5.329,0,0,0,1.3,3.54h-1.1v2.57h11.562Zm0.16-25.55a15.505,15.505,0,0,0-.12-1.93h-1.58a9.848,9.848,0,0,1,.06,1.02c0,1.09-.36,1.37-1.26,1.37h-7.4v-2.41h-1.42v2.41H92.341v2.79h3.381v1.58h1.42v-1.58h7.542C106.364,1275.25,107.444,1274.36,107.444,1272Zm-0.16-3.05v-2.78H98a3.946,3.946,0,0,1-.76-2.03,1.057,1.057,0,0,1,1.3-1.19h8.742v-2.78H97.922a2.086,2.086,0,0,0-2.361,2.23,6.263,6.263,0,0,0,1.36,3.77H91.081v2.78h16.2Zm0.16-14.61c0-3.07-1.42-4.24-3.741-4.24h-0.44v2.71h0.7c1.16,0,1.9.26,1.9,1.51,0,1.19-.6,1.69-2,1.69h-2.32v-5.93H100.6c-3.161,0-5.041.49-5.041,4.26,0,3.46,1.56,4.45,4.621,4.45h2.64C105.844,1258.79,107.444,1257.88,107.444,1254.34Zm-7.061,1.67h-0.62c-2,0-2.621-.29-2.621-1.64,0-1.38.78-1.56,2.2-1.56h1.04v3.2Zm7.061-15.03a3.093,3.093,0,0,0-1.86-3.04c0.54-.08,1.28-0.26,1.7-0.37v-2.55a16.038,16.038,0,0,1-2.78.26H99.223c-2.38,0-3.661,1.15-3.661,4.11,0,3.07,1.18,4.47,3.741,4.53l0.08-2.76H98.8a1.428,1.428,0,0,1-1.64-1.59c0-1.3.68-1.5,2.08-1.5h0.821c0.98,3.22,1.82,5.92,4.7,5.92A2.87,2.87,0,0,0,107.444,1240.98Zm-1.84-1.09a1.291,1.291,0,0,1-1.5,1.32c-1.34,0-1.98-1.43-2.74-3.14h3.281A2.689,2.689,0,0,1,105.6,1239.89Zm1.84-11.63c0-2.96-2.28-3.71-4.741-3.71H99.9c-1.38,0-4.341.28-4.341,3.43a4.119,4.119,0,0,0,1.08,2.83H91.081v2.78h16.2v-2.78h-0.84A3.964,3.964,0,0,0,107.444,1228.26Zm-1.68.58a3.793,3.793,0,0,1-.52,1.97H97.822a3.63,3.63,0,0,1-.58-1.87c0-1.43,1.22-1.61,2.661-1.61h2.8C104.4,1227.33,105.764,1227.41,105.764,1228.84Zm4.421-5.54v-0.34c0-2.73-.58-4.32-2.261-4.81l-12.2-3.59v2.81l8.642,1.95-8.642,2.03v2.81l9.842-3.02a15.286,15.286,0,0,1,2.12-.57c0.68,0,.861.7,0.861,2.73h1.64Zm-2.741-12.87c0-2.47-.98-4.16-2.96-4.16-1.481,0-2.361,1.06-3.121,2.13l-1.88,2.65a1.421,1.421,0,0,1-1.16.76,1.317,1.317,0,0,1-1.18-1.49c0-1.19.8-1.63,2-1.84l-0.54-1.88c-1.68.19-3.041,1.43-3.041,3.83,0,2.34,1.02,3.87,2.841,3.87a3.275,3.275,0,0,0,2.821-1.84l1.7-2.58a2.058,2.058,0,0,1,1.721-1.22,1.287,1.287,0,0,1,1.22,1.53c0,1.28-.72,1.9-2.2,2.16l0.541,2.32C106.144,1214.46,107.444,1212.9,107.444,1210.43Zm0-8.69c0-2.47-.98-4.16-2.96-4.16-1.481,0-2.361,1.07-3.121,2.14l-1.88,2.65a1.43,1.43,0,0,1-1.16.75,1.307,1.307,0,0,1-1.18-1.48c0-1.2.8-1.64,2-1.85l-0.54-1.87c-1.68.18-3.041,1.43-3.041,3.82,0,2.34,1.02,3.88,2.841,3.88a3.285,3.285,0,0,0,2.821-1.85l1.7-2.57a2.058,2.058,0,0,1,1.721-1.22,1.282,1.282,0,0,1,1.22,1.53c0,1.27-.72,1.9-2.2,2.16l0.541,2.31C106.144,1205.77,107.444,1204.21,107.444,1201.74Zm0-14.24c0-3.33-1.66-4.37-4.261-4.37h-3.36c-2.6,0-4.261,1.04-4.261,4.37,0,3.35,1.66,4.39,4.261,4.39h3.36C105.784,1191.89,107.444,1190.85,107.444,1187.5Zm-1.58,0c0,1.61-1.24,1.61-2.541,1.61H99.7c-1.3,0-2.561,0-2.561-1.61,0-1.59,1.26-1.59,2.561-1.59h3.62C104.624,1185.91,105.864,1185.91,105.864,1187.5Zm1.42-6.76v-2.79H97.3v-2.28h-1.58v2.28h-0.96c-0.9,0-1.5-.15-1.5-1.24a6.017,6.017,0,0,1,.1-1.04H91.8a10.673,10.673,0,0,0-.14,1.82c0,2.83,1.32,3.25,3.461,3.25h0.6v1.79H97.3v-1.79h9.982Zm0-10.69v-2.94H99.7v-5.41h7.581v-2.94h-16.2v2.94h7v5.41h-7v2.94h16.2Zm0.16-17.47c0-3.07-1.42-4.24-3.741-4.24h-0.44v2.7h0.7c1.16,0,1.9.26,1.9,1.51,0,1.2-.6,1.69-2,1.69h-2.32v-5.93H100.6c-3.161,0-5.041.5-5.041,4.27,0,3.46,1.56,4.44,4.621,4.44h2.64C105.844,1157.02,107.444,1156.11,107.444,1152.58Zm-7.061,1.66h-0.62c-2,0-2.621-.28-2.621-1.64s0.78-1.56,2.2-1.56h1.04v3.2Zm6.9-7.67v-2.78h-16.2v2.78h16.2Zm0-4.91v-2.78h-16.2v2.78h16.2Zm0.16-13.57a15.505,15.505,0,0,0-.12-1.93h-1.58a9.7,9.7,0,0,1,.06,1.02c0,1.09-.36,1.37-1.26,1.37h-7.4v-2.41h-1.42v2.41H92.341v2.79h3.381v1.58h1.42v-1.58h7.542C106.364,1131.34,107.444,1130.45,107.444,1128.09Zm0-7.1c0-3.33-1.66-4.37-4.261-4.37h-3.36c-2.6,0-4.261,1.04-4.261,4.37,0,3.35,1.66,4.39,4.261,4.39h3.36C105.784,1125.38,107.444,1124.34,107.444,1120.99Zm-1.58,0c0,1.61-1.24,1.61-2.541,1.61H99.7c-1.3,0-2.561,0-2.561-1.61,0-1.59,1.26-1.59,2.561-1.59h3.62C104.624,1119.4,105.864,1119.4,105.864,1120.99Zm1.58-14.9c0-3.22-1.38-4.11-3.721-4.11h-0.8v2.52h0.94c1.181,0,2,.16,2,1.54,0,1.25-.5,1.66-2.481,1.66h-3.64c-1.96,0-2.6-.26-2.6-1.64,0-1.22.54-1.56,2.041-1.56h0.7v-2.52H99.2c-2.38,0-3.641.83-3.641,4.11,0,3.64,1.721,4.39,4.621,4.39h2.66C105.624,1110.48,107.444,1109.78,107.444,1106.09Zm-0.16-5.62v-2.78H98a3.946,3.946,0,0,1-.76-2.03,1.057,1.057,0,0,1,1.3-1.19h8.742v-2.78H97.922a2.086,2.086,0,0,0-2.361,2.23,6.263,6.263,0,0,0,1.36,3.77H91.081v2.78h16.2Zm0.16-13.15a3.093,3.093,0,0,0-1.86-3.04c0.54-.08,1.28-0.26,1.7-0.37v-2.55a16.038,16.038,0,0,1-2.78.26H99.223c-2.38,0-3.661,1.15-3.661,4.11,0,3.07,1.18,4.47,3.741,4.53l0.08-2.76H98.8a1.428,1.428,0,0,1-1.64-1.59c0-1.3.68-1.5,2.08-1.5h0.821c0.98,3.22,1.82,5.92,4.7,5.92A2.87,2.87,0,0,0,107.444,1087.32Zm-1.84-1.09a1.291,1.291,0,0,1-1.5,1.32c-1.34,0-1.98-1.43-2.74-3.14h3.281A2.689,2.689,0,0,1,105.6,1086.23Zm1.68-6.24v-2.79H97.962a3.866,3.866,0,0,1-.72-1.95,1.057,1.057,0,0,1,1.3-1.19h8.742v-2.78H97.922a2.094,2.094,0,0,0-2.361,2.26,6.164,6.164,0,0,0,1.3,3.66h-1.14v2.79h11.562Zm3.581-14.28c0-3.51-.98-5.23-2.881-5.23-1.74,0-2.66,1.12-2.82,3.49l-0.16,2.34c-0.06.88-.22,1.25-0.52,1.25a1.649,1.649,0,0,1-.881-0.5,8.253,8.253,0,0,0,.14-1.43c0-3.14-1.64-4.16-4-4.16a5.907,5.907,0,0,0-2.12.47,12.018,12.018,0,0,1-.74-2.55l-1.38.7,0.14,0.42a6.153,6.153,0,0,0,1.2,2.03c-0.84.52-1.28,1.48-1.28,3.09,0,2.79,1.42,4.24,4.121,4.24a3.458,3.458,0,0,0,3.441-1.74c0.721,1.04,1.241,1.66,2.1,1.66,0.52,0,1.02-.46,1.24-1.45,0.4,1.12,1.12,2.16,2.22,2.16C110.245,1070.5,110.865,1068.44,110.865,1065.71Zm-8.622-.08c0,1.56-1.12,1.82-2.56,1.82-1.68,0-2.64-.28-2.64-1.84s1.02-1.77,2.64-1.77S102.243,1064.05,102.243,1065.63Zm6.942-.13c0,2.03-.341,2.66-1.041,2.66a2.2,2.2,0,0,1-1.44-1.12l0.16-2.37c0.12-1.64.48-2.05,1.18-2.05C108.844,1062.62,109.185,1063.53,109.185,1065.5Zm-1.741-10.32c0-3.07-1.42-4.24-3.741-4.24h-0.44v2.71h0.7c1.16,0,1.9.26,1.9,1.51,0,1.19-.6,1.69-2,1.69h-2.32v-5.93H100.6c-3.161,0-5.041.49-5.041,4.26,0,3.46,1.56,4.45,4.621,4.45h2.64C105.844,1059.63,107.444,1058.72,107.444,1055.18Zm-7.061,1.67h-0.62c-2,0-2.621-.29-2.621-1.64,0-1.38.78-1.56,2.2-1.56h1.04v3.2Zm7.061-16.33a15.747,15.747,0,0,0-.12-1.93h-1.58a9.848,9.848,0,0,1,.06,1.02c0,1.09-.36,1.38-1.26,1.38h-7.4v-2.42h-1.42v2.42H92.341v2.78h3.381v1.58h1.42v-1.58h7.542C106.364,1043.77,107.444,1042.88,107.444,1040.52Zm-0.16-3.04v-2.79H98a3.914,3.914,0,0,1-.76-2.02,1.06,1.06,0,0,1,1.3-1.2h8.742v-2.78H97.922a2.091,2.091,0,0,0-2.361,2.23,6.263,6.263,0,0,0,1.36,3.77H91.081v2.79h16.2ZM94,1026.84v-2.78H91.761v2.78H94Zm13.283,0v-2.78H95.722v2.78h11.562Zm0.16-8.21c0-2.47-.98-4.16-2.96-4.16-1.481,0-2.361,1.06-3.121,2.13l-1.88,2.65a1.407,1.407,0,0,1-1.16.75,1.307,1.307,0,0,1-1.18-1.48c0-1.19.8-1.64,2-1.85l-0.54-1.87c-1.68.19-3.041,1.43-3.041,3.83,0,2.34,1.02,3.87,2.841,3.87a3.285,3.285,0,0,0,2.821-1.85l1.7-2.57a2.058,2.058,0,0,1,1.721-1.22,1.282,1.282,0,0,1,1.22,1.53c0,1.28-.72,1.9-2.2,2.16l0.541,2.31C106.144,1022.66,107.444,1021.1,107.444,1018.63Zm-0.16-10.38v-2.78h-16.2v2.78h16.2Zm0.16-8.787c0-3.328-1.66-4.368-4.261-4.368h-3.36c-2.6,0-4.261,1.04-4.261,4.368,0,3.357,1.66,4.4,4.261,4.4h3.36C105.784,1003.86,107.444,1002.82,107.444,999.463Zm-1.58,0c0,1.617-1.24,1.617-2.541,1.617H99.7c-1.3,0-2.561,0-2.561-1.617,0-1.586,1.26-1.586,2.561-1.586h3.62C104.624,997.877,105.864,997.877,105.864,999.463Zm1.58-8.034a6.188,6.188,0,0,0-1.3-3.666h1.14v-2.782H95.722v2.782h9.322a3.9,3.9,0,0,1,.72,1.95,1.074,1.074,0,0,1-1.32,1.2H95.722v2.782h9.362A2.1,2.1,0,0,0,107.444,991.429Zm0-11.726c0-2.47-.98-4.16-2.96-4.16-1.481,0-2.361,1.066-3.121,2.132l-1.88,2.652a1.422,1.422,0,0,1-1.16.754,1.309,1.309,0,0,1-1.18-1.482c0-1.2.8-1.638,2-1.846l-0.54-1.872c-1.68.182-3.041,1.43-3.041,3.822,0,2.34,1.02,3.874,2.841,3.874a3.281,3.281,0,0,0,2.821-1.846l1.7-2.574a2.065,2.065,0,0,1,1.721-1.222,1.286,1.286,0,0,1,1.22,1.534c0,1.274-.72,1.9-2.2,2.158l0.541,2.315C106.144,983.733,107.444,982.173,107.444,979.7Zm2.741-4.965V974.4c0-2.731-.58-4.317-2.261-4.811L95.722,966v2.808l8.642,1.95-8.642,2.028V975.6l9.842-3.016a16.033,16.033,0,0,1,2.12-.572c0.68,0,.861.7,0.861,2.731h1.64Zm-2.9-16.043v-2.5l-8.162-2.028,8.162-2.054v-2.34l-11.562-2.5v2.288l8.482,1.56-8.482,2v2.132l8.522,2-8.522,1.561v2.287Zm0.16-16.64c0-3.328-1.66-4.368-4.261-4.368h-3.36c-2.6,0-4.261,1.04-4.261,4.368,0,3.354,1.66,4.394,4.261,4.394h3.36C105.784,946.449,107.444,945.409,107.444,942.055Zm-1.58,0c0,1.612-1.24,1.612-2.541,1.612H99.7c-1.3,0-2.561,0-2.561-1.612,0-1.586,1.26-1.586,2.561-1.586h3.62C104.624,940.469,105.864,940.469,105.864,942.055Zm1.42-5.954v-2.782H98.842a2.582,2.582,0,0,1-1.12-2.236,5.806,5.806,0,0,1,.24-1.534H95.6a3.86,3.86,0,0,0-.02.442,3.988,3.988,0,0,0,1.781,3.328h-1.64V936.1h11.562Zm0-7.488v-2.782h-16.2v2.782h16.2Zm0.16-8.138a3.668,3.668,0,0,0-.9-2.418h0.74v-2.782h-16.2v2.782h5.381a4.054,4.054,0,0,0-.9,2.5c0,3.068,2.3,3.692,4.941,3.692h2.24C106.164,924.245,107.444,923.023,107.444,920.475Zm-1.68-.7c0,1.482-1.22,1.69-2.841,1.69h-3.26c-1.32,0-2.421-.338-2.421-1.638a3.8,3.8,0,0,1,.5-1.768h7.582A3.893,3.893,0,0,1,105.764,919.773Zm-1.941-7.046v-0.988L91.081,910.8v2.808Zm3.461,0.884V910.8h-2.2v2.808h2.2Zm24,504.189v-2.93H116.761v-3.46h-1.68v9.96h1.68v-3.57h14.523Zm0-7.22v-2.79H122a3.916,3.916,0,0,1-.76-2.02,1.06,1.06,0,0,1,1.3-1.2h8.742v-2.78h-9.362a2.091,2.091,0,0,0-2.36,2.23,6.264,6.264,0,0,0,1.36,3.77h-5.841v2.79h16.2Zm0.16-14.62c0-3.06-1.42-4.23-3.74-4.23h-0.441v2.7h0.7c1.161,0,1.9.26,1.9,1.51,0,1.19-.6,1.69-2,1.69h-2.321v-5.93H124.6c-3.161,0-5.041.49-5.041,4.26,0,3.46,1.56,4.45,4.621,4.45h2.64C129.844,1400.41,131.444,1399.5,131.444,1395.96Zm-7.061,1.67h-0.62c-2,0-2.621-.29-2.621-1.64,0-1.38.78-1.56,2.2-1.56h1.041v3.2Zm7.061-16.49c0-3.06-1.42-4.24-3.74-4.24h-0.441v2.71h0.7c1.161,0,1.9.26,1.9,1.51,0,1.19-.6,1.69-2,1.69h-2.321v-5.93H124.6c-3.161,0-5.041.49-5.041,4.26,0,3.46,1.56,4.45,4.621,4.45h2.64C129.844,1385.59,131.444,1384.68,131.444,1381.14Zm-7.061,1.67h-0.62c-2,0-2.621-.29-2.621-1.64,0-1.38.78-1.56,2.2-1.56h1.041v3.2Zm6.9-7.41v-2.78h-9.322a3.933,3.933,0,0,1-.72-1.95,1.06,1.06,0,0,1,1.3-1.2h8.742v-2.78h-9.362a2.1,2.1,0,0,0-2.36,2.26,6.2,6.2,0,0,0,1.3,3.67h-1.14v2.78h11.562Zm0.16-14.54c0-3.06-1.42-4.23-3.74-4.23h-0.441v2.7h0.7c1.161,0,1.9.26,1.9,1.51,0,1.19-.6,1.69-2,1.69h-2.321v-5.93H124.6c-3.161,0-5.041.49-5.041,4.26,0,3.46,1.56,4.45,4.621,4.45h2.64C129.844,1365.31,131.444,1364.4,131.444,1360.86Zm-7.061,1.67h-0.62c-2,0-2.621-.29-2.621-1.64,0-1.38.78-1.56,2.2-1.56h1.041v3.2Zm6.9-7.41v-2.58h-9.422a3.926,3.926,0,0,1-.94-2.34,1.17,1.17,0,0,1,1.42-1.3h8.942v-2.55h-9.422a3.876,3.876,0,0,1-.94-2.33,1.176,1.176,0,0,1,1.42-1.31h8.942v-2.54H122.2a2.425,2.425,0,0,0-2.68,2.65,5.323,5.323,0,0,0,1.46,3.74,2.349,2.349,0,0,0-1.46,2.45,5.323,5.323,0,0,0,1.3,3.53h-1.1v2.58h11.562ZM118,1338.3v-2.79h-2.24v2.79H118Zm13.283,0v-2.79H119.722v2.79h11.562Zm0.16-8.9c0-3.07-1.42-4.23-3.74-4.23h-0.441v2.7h0.7c1.161,0,1.9.26,1.9,1.51,0,1.19-.6,1.69-2,1.69h-2.321v-5.93H124.6c-3.161,0-5.041.49-5.041,4.26,0,3.46,1.56,4.45,4.621,4.45h2.64C129.844,1333.85,131.444,1332.94,131.444,1329.4Zm-7.061,1.67h-0.62c-2,0-2.621-.29-2.621-1.64,0-1.38.78-1.56,2.2-1.56h1.041v3.2Zm7.061-10.9c0-2.47-.98-4.16-2.96-4.16-1.481,0-2.361,1.07-3.121,2.14l-1.88,2.65a1.432,1.432,0,0,1-1.161.75,1.307,1.307,0,0,1-1.18-1.48c0-1.2.8-1.64,2-1.85l-0.54-1.87c-1.68.18-3.04,1.43-3.04,3.82,0,2.34,1.02,3.88,2.84,3.88a3.285,3.285,0,0,0,2.821-1.85l1.7-2.57a2.059,2.059,0,0,1,1.721-1.22,1.282,1.282,0,0,1,1.22,1.53c0,1.27-.72,1.9-2.2,2.16l0.54,2.31C130.144,1324.2,131.444,1322.64,131.444,1320.17Zm0-12.81a3.118,3.118,0,0,0-1.86-3.05c0.54-.08,1.28-0.26,1.7-0.36v-2.55a16.038,16.038,0,0,1-2.78.26h-5.282c-2.38,0-3.66,1.14-3.66,4.11,0,3.07,1.18,4.47,3.74,4.52l0.081-2.75H122.8a1.428,1.428,0,0,1-1.64-1.59c0-1.3.68-1.51,2.081-1.51h0.82c0.98,3.23,1.82,5.93,4.7,5.93A2.876,2.876,0,0,0,131.444,1307.36Zm-1.84-1.1a1.293,1.293,0,0,1-1.5,1.33c-1.341,0-1.981-1.43-2.741-3.15h3.281A2.737,2.737,0,0,1,129.6,1306.26Zm1.68-6.31v-2.79h-8.442a2.568,2.568,0,0,1-1.12-2.23,5.853,5.853,0,0,1,.24-1.54H119.6a4.07,4.07,0,0,0,1.76,3.77h-1.64v2.79h11.562Zm0.16-11.39c0-3.07-1.42-4.24-3.74-4.24h-0.441v2.7h0.7c1.161,0,1.9.26,1.9,1.51,0,1.2-.6,1.69-2,1.69h-2.321v-5.93H124.6c-3.161,0-5.041.5-5.041,4.27,0,3.46,1.56,4.44,4.621,4.44h2.64C129.844,1293,131.444,1292.09,131.444,1288.56Zm-7.061,1.66h-0.62c-2,0-2.621-.28-2.621-1.64s0.78-1.56,2.2-1.56h1.041v3.2Zm7.061-16.43c0-3.22-1.38-4.11-3.721-4.11h-0.8v2.52h0.941c1.18,0,2,.16,2,1.54,0,1.25-.5,1.66-2.481,1.66h-3.64c-1.961,0-2.6-.26-2.6-1.64,0-1.22.54-1.56,2.04-1.56h0.7v-2.52H123.2c-2.381,0-3.641.83-3.641,4.11,0,3.64,1.72,4.39,4.621,4.39h2.66C129.624,1278.18,131.444,1277.48,131.444,1273.79Zm0-9.67c0-3.33-1.66-4.37-4.261-4.37h-3.36c-2.6,0-4.261,1.04-4.261,4.37,0,3.35,1.66,4.39,4.261,4.39h3.36C129.784,1268.51,131.444,1267.47,131.444,1264.12Zm-1.58,0c0,1.61-1.24,1.61-2.541,1.61H123.7c-1.3,0-2.561,0-2.561-1.61,0-1.59,1.26-1.59,2.561-1.59h3.62C128.624,1262.53,129.864,1262.53,129.864,1264.12Zm1.42-5.88v-2.78h-9.322a3.9,3.9,0,0,1-.72-1.95,1.063,1.063,0,0,1,1.3-1.2h8.742v-2.78h-9.362a2.1,2.1,0,0,0-2.36,2.26,6.2,6.2,0,0,0,1.3,3.67h-1.14v2.78h11.562Zm0-11.26v-2.78H121.3v-2.29h-1.58v2.29h-0.96c-0.9,0-1.5-.15-1.5-1.25a6.2,6.2,0,0,1,.1-1.04H115.8a10.743,10.743,0,0,0-.14,1.82c0,2.84,1.32,3.25,3.461,3.25h0.6v1.8h1.58v-1.8h9.982Zm0.16-9.67c0-3.33-1.66-4.37-4.261-4.37h-3.36c-2.6,0-4.261,1.04-4.261,4.37,0,3.36,1.66,4.4,4.261,4.4h3.36C129.784,1241.71,131.444,1240.67,131.444,1237.31Zm-1.58,0c0,1.61-1.24,1.61-2.541,1.61H123.7c-1.3,0-2.561,0-2.561-1.61,0-1.58,1.26-1.58,2.561-1.58h3.62C128.624,1235.73,129.864,1235.73,129.864,1237.31Zm1.42-5.95v-2.78h-8.442a2.6,2.6,0,0,1-1.12-2.24,5.708,5.708,0,0,1,.24-1.53H119.6a3.8,3.8,0,0,0-.02.44,4,4,0,0,0,1.78,3.33h-1.64v2.78h11.562Zm0-7.23v-2.57h-9.422a3.974,3.974,0,0,1-.94-2.34,1.17,1.17,0,0,1,1.42-1.3h8.942v-2.55h-9.422a3.926,3.926,0,0,1-.94-2.34,1.17,1.17,0,0,1,1.42-1.3h8.942v-2.55H122.2a2.425,2.425,0,0,0-2.68,2.65,5.364,5.364,0,0,0,1.46,3.75,2.336,2.336,0,0,0-1.46,2.44,5.367,5.367,0,0,0,1.3,3.54h-1.1v2.57h11.562ZM118,1207.31v-2.78h-2.24v2.78H118Zm13.283,0v-2.78H119.722v2.78h11.562Zm0.16-8.74a15.465,15.465,0,0,0-.12-1.92h-1.58a9.669,9.669,0,0,1,.06,1.01c0,1.09-.36,1.38-1.26,1.38h-7.4v-2.42h-1.42v2.42h-3.381v2.78h3.381v1.59h1.42v-1.59h7.542C130.364,1201.82,131.444,1200.94,131.444,1198.57Zm2.741-2.73v-0.34c0-2.73-.58-4.31-2.261-4.81l-12.2-3.58v2.8l8.642,1.95-8.642,2.03v2.81l9.842-3.02a16.956,16.956,0,0,1,2.12-.57c0.68,0,.86.7,0.86,2.73h1.641Zm-0.28-9.46c-0.44-1.67-1.24-2.45-2.661-2.45h-2.26v2.86h2.3v-1.48a1.784,1.784,0,0,1,1.7,1.51Zm-2.461-11.36a3.118,3.118,0,0,0-1.86-3.05c0.54-.07,1.28-0.26,1.7-0.36v-2.55a16.038,16.038,0,0,1-2.78.26h-5.282c-2.38,0-3.66,1.14-3.66,4.11,0,3.07,1.18,4.47,3.74,4.52l0.081-2.75H122.8a1.428,1.428,0,0,1-1.64-1.59c0-1.3.68-1.51,2.081-1.51h0.82c0.98,3.23,1.82,5.93,4.7,5.93A2.876,2.876,0,0,0,131.444,1175.02Zm-1.84-1.1a1.293,1.293,0,0,1-1.5,1.33c-1.341,0-1.981-1.43-2.741-3.15h3.281A2.737,2.737,0,0,1,129.6,1173.92Zm1.84-8.39a6.2,6.2,0,0,0-1.3-3.67h1.14v-2.78H119.722v2.78h9.322a3.9,3.9,0,0,1,.72,1.95,1.077,1.077,0,0,1-1.32,1.2h-8.722v2.78h9.362A2.1,2.1,0,0,0,131.444,1165.53Zm0-12.25a15.465,15.465,0,0,0-.12-1.92h-1.58a9.517,9.517,0,0,1,.06,1.01c0,1.09-.36,1.38-1.26,1.38h-7.4v-2.42h-1.42v2.42h-3.381v2.78h3.381v1.59h1.42v-1.59h7.542C130.364,1156.53,131.444,1155.65,131.444,1153.28Zm-0.16-3.04v-2.78H122a3.98,3.98,0,0,1-.76-2.03,1.06,1.06,0,0,1,1.3-1.2h8.742v-2.78h-9.362a2.093,2.093,0,0,0-2.36,2.24,6.312,6.312,0,0,0,1.36,3.77h-5.841v2.78h16.2Zm0.16-14.59c0-3.33-1.66-4.37-4.261-4.37h-3.36c-2.6,0-4.261,1.04-4.261,4.37,0,3.36,1.66,4.4,4.261,4.4h3.36C129.784,1140.05,131.444,1139.01,131.444,1135.65Zm-1.58,0c0,1.61-1.24,1.61-2.541,1.61H123.7c-1.3,0-2.561,0-2.561-1.61,0-1.58,1.26-1.58,2.561-1.58h3.62C128.624,1134.07,129.864,1134.07,129.864,1135.65Zm1.42-5.95v-2.78h-8.442a2.6,2.6,0,0,1-1.12-2.24,5.708,5.708,0,0,1,.24-1.53H119.6a3.8,3.8,0,0,0-.02.44,4,4,0,0,0,1.78,3.33h-1.64v2.78h11.562ZM118,1122.29v-2.78h-2.24v2.78H118Zm13.283,0v-2.78H119.722v2.78h11.562Zm0.16-8.74a15.465,15.465,0,0,0-.12-1.92h-1.58a9.669,9.669,0,0,1,.06,1.01c0,1.09-.36,1.38-1.26,1.38h-7.4v-2.42h-1.42v2.42h-3.381v2.78h3.381v1.59h1.42v-1.59h7.542C130.364,1116.8,131.444,1115.92,131.444,1113.55Zm2.741-2.73v-0.34c0-2.73-.58-4.31-2.261-4.81l-12.2-3.58v2.8l8.642,1.95-8.642,2.03v2.81l9.842-3.02a16.956,16.956,0,0,1,2.12-.57c0.68,0,.86.7,0.86,2.73h1.641Zm-2.741-17a3.093,3.093,0,0,0-1.86-3.04c0.54-.08,1.28-0.26,1.7-0.37v-2.55a16.038,16.038,0,0,1-2.78.26h-5.282c-2.38,0-3.66,1.15-3.66,4.11,0,3.07,1.18,4.47,3.74,4.53l0.081-2.76H122.8a1.428,1.428,0,0,1-1.64-1.59c0-1.3.68-1.5,2.081-1.5h0.82c0.98,3.22,1.82,5.92,4.7,5.92A2.87,2.87,0,0,0,131.444,1093.82Zm-1.84-1.09a1.291,1.291,0,0,1-1.5,1.32c-1.341,0-1.981-1.43-2.741-3.14h3.281A2.689,2.689,0,0,1,129.6,1092.73Zm1.68-6.24v-2.79h-9.322a3.866,3.866,0,0,1-.72-1.95,1.057,1.057,0,0,1,1.3-1.19h8.742v-2.78h-9.362a2.094,2.094,0,0,0-2.36,2.26,6.165,6.165,0,0,0,1.3,3.66h-1.14v2.79h11.562Zm0.16-13.86a3.67,3.67,0,0,0-.9-2.42h0.74v-2.78h-16.2v2.78h5.381a4.052,4.052,0,0,0-.9,2.5c0,3.06,2.3,3.69,4.941,3.69h2.24C130.164,1076.4,131.444,1075.18,131.444,1072.63Zm-1.68-.7c0,1.48-1.22,1.69-2.841,1.69h-3.26c-1.321,0-2.421-.34-2.421-1.64a3.785,3.785,0,0,1,.5-1.77h7.582A3.915,3.915,0,0,1,129.764,1071.93Zm1.68-14.67a3.67,3.67,0,0,0-.9-2.42h0.74v-2.78h-16.2v2.78h5.381a4.075,4.075,0,0,0-.9,2.5c0,3.07,2.3,3.69,4.941,3.69h2.24C130.164,1061.03,131.444,1059.81,131.444,1057.26Zm-1.68-.7c0,1.48-1.22,1.69-2.841,1.69h-3.26c-1.321,0-2.421-.34-2.421-1.64a3.854,3.854,0,0,1,.5-1.77h7.582A3.915,3.915,0,0,1,129.764,1056.56ZM118,1050.11v-2.78h-2.24v2.78H118Zm13.283,0v-2.78H119.722v2.78h11.562Zm0.16-8.21c0-2.47-.98-4.17-2.96-4.17-1.481,0-2.361,1.07-3.121,2.14l-1.88,2.65a1.409,1.409,0,0,1-1.161.75,1.307,1.307,0,0,1-1.18-1.48c0-1.19.8-1.64,2-1.84l-0.54-1.88c-1.68.19-3.04,1.43-3.04,3.83,0,2.34,1.02,3.87,2.84,3.87a3.285,3.285,0,0,0,2.821-1.85l1.7-2.57a2.059,2.059,0,0,1,1.721-1.22,1.282,1.282,0,0,1,1.22,1.53c0,1.28-.72,1.9-2.2,2.16l0.54,2.31C130.144,1045.93,131.444,1044.37,131.444,1041.9Zm0-9.31c0-3.23-1.38-4.11-3.721-4.11h-0.8V1031h0.941c1.18,0,2,.16,2,1.54,0,1.24-.5,1.66-2.481,1.66h-3.64c-1.961,0-2.6-.26-2.6-1.64,0-1.22.54-1.56,2.04-1.56h0.7v-2.52H123.2c-2.381,0-3.641.83-3.641,4.11,0,3.64,1.72,4.39,4.621,4.39h2.66C129.624,1036.98,131.444,1036.28,131.444,1032.59Zm-0.16-5.62v-2.78h-8.442a2.584,2.584,0,0,1-1.12-2.24,5.842,5.842,0,0,1,.24-1.53H119.6a3.884,3.884,0,0,0-.02.44,3.987,3.987,0,0,0,1.78,3.33h-1.64v2.78h11.562ZM118,1019.56v-2.78h-2.24v2.78H118Zm13.283,0v-2.78H119.722v2.78h11.562Zm0-4.73v-2.57h-9.422a3.974,3.974,0,0,1-.94-2.34,1.17,1.17,0,0,1,1.42-1.3h8.942v-2.55h-9.422a3.926,3.926,0,0,1-.94-2.34,1.17,1.17,0,0,1,1.42-1.3h8.942v-2.551H122.2a2.426,2.426,0,0,0-2.68,2.651,5.364,5.364,0,0,0,1.46,3.75,2.336,2.336,0,0,0-1.46,2.44,5.367,5.367,0,0,0,1.3,3.54h-1.1v2.57h11.562ZM118,998.007v-2.782h-2.24v2.782H118Zm13.283,0v-2.782H119.722v2.782h11.562Zm0-4.731v-2.783h-9.322a3.9,3.9,0,0,1-.72-1.95,1.06,1.06,0,0,1,1.3-1.2h8.742v-2.782h-9.362a2.1,2.1,0,0,0-2.36,2.262,6.188,6.188,0,0,0,1.3,3.666h-1.14v2.783h11.562Zm0.16-13.079a3.1,3.1,0,0,0-1.86-3.042c0.54-.078,1.28-0.26,1.7-0.364v-2.548a16.038,16.038,0,0,1-2.78.26h-5.282c-2.38,0-3.66,1.144-3.66,4.108,0,3.068,1.18,4.472,3.74,4.524l0.081-2.756H122.8a1.427,1.427,0,0,1-1.64-1.586c0-1.3.68-1.508,2.081-1.508h0.82c0.98,3.224,1.82,5.928,4.7,5.928A2.876,2.876,0,0,0,131.444,980.2Zm-1.84-1.092a1.292,1.292,0,0,1-1.5,1.327c-1.341,0-1.981-1.431-2.741-3.147h3.281A2.708,2.708,0,0,1,129.6,979.105Zm1.84-10.244a15.529,15.529,0,0,0-.12-1.924h-1.58a9.709,9.709,0,0,1,.06,1.014c0,1.092-.36,1.378-1.26,1.378h-7.4v-2.418h-1.42v2.418h-3.381v2.782h3.381V973.7h1.42v-1.587h7.542C130.364,972.111,131.444,971.227,131.444,968.861ZM118,965.715v-2.781h-2.24v2.781H118Zm13.283,0v-2.781H119.722v2.781h11.562Zm0.16-8.866c0-3.328-1.66-4.368-4.261-4.368h-3.36c-2.6,0-4.261,1.04-4.261,4.368,0,3.354,1.66,4.395,4.261,4.395h3.36C129.784,961.244,131.444,960.2,131.444,956.849Zm-1.58,0c0,1.612-1.24,1.612-2.541,1.612H123.7c-1.3,0-2.561,0-2.561-1.612,0-1.586,1.26-1.586,2.561-1.586h3.62C128.624,955.263,129.864,955.263,129.864,956.849Zm1.42-5.875v-2.783h-9.322a3.9,3.9,0,0,1-.72-1.95,1.06,1.06,0,0,1,1.3-1.2h8.742v-2.782h-9.362a2.1,2.1,0,0,0-2.36,2.262,6.188,6.188,0,0,0,1.3,3.666h-1.14v2.783h11.562Zm-3.46-11.155v-0.988l-12.743-.936V940.7Zm3.46,0.884V937.9h-2.2V940.7h2.2Zm24,477.1v-2.93H140.761v-3.46h-1.68v9.96h1.68v-3.57h14.523Zm0-7.22v-2.79H146a3.916,3.916,0,0,1-.76-2.02,1.06,1.06,0,0,1,1.3-1.2h8.742v-2.78h-9.362a2.091,2.091,0,0,0-2.36,2.23,6.264,6.264,0,0,0,1.36,3.77h-5.841v2.79h16.2ZM142,1399.94v-2.78h-2.24v2.78H142Zm13.283,0v-2.78H143.722v2.78h11.562Zm0.16-8.21c0-2.47-.98-4.16-2.96-4.16-1.481,0-2.361,1.06-3.121,2.13l-1.88,2.65a1.409,1.409,0,0,1-1.161.75,1.307,1.307,0,0,1-1.18-1.48c0-1.19.8-1.64,2-1.84l-0.54-1.88c-1.68.18-3.04,1.43-3.04,3.83,0,2.34,1.02,3.87,2.84,3.87a3.285,3.285,0,0,0,2.821-1.85l1.7-2.57a2.059,2.059,0,0,1,1.721-1.22,1.282,1.282,0,0,1,1.22,1.53c0,1.28-.72,1.9-2.2,2.16l0.541,2.31C154.144,1395.76,155.444,1394.2,155.444,1391.73Zm3.641-10.12v-2.78h-4.661a3.938,3.938,0,0,0,1.02-2.55c0-2.96-2.28-3.74-4.741-3.74h-2.8c-1.381,0-4.341.28-4.341,3.43a4.2,4.2,0,0,0,1.08,2.86h-0.92v2.78h15.363Zm-5.321-4.78a3.909,3.909,0,0,1-.52,2h-7.4a3.569,3.569,0,0,1-.6-1.9c0-1.43,1.22-1.61,2.661-1.61h2.8C152.4,1375.32,153.764,1375.4,153.764,1376.83Zm1.52-5.85v-2.78H146a3.98,3.98,0,0,1-.76-2.03,1.063,1.063,0,0,1,1.3-1.2h8.742v-2.78h-9.362a2.093,2.093,0,0,0-2.36,2.24,6.312,6.312,0,0,0,1.36,3.77h-5.841v2.78h16.2Zm0.16-14.61c0-3.07-1.42-4.24-3.74-4.24h-0.441v2.7h0.7c1.161,0,1.9.26,1.9,1.51,0,1.2-.6,1.69-2,1.69h-2.321v-5.93H148.6c-3.161,0-5.041.5-5.041,4.27,0,3.45,1.56,4.44,4.621,4.44h2.64C153.844,1360.81,155.444,1359.9,155.444,1356.37Zm-7.061,1.66h-0.62c-2,0-2.621-.29-2.621-1.64,0-1.38.78-1.56,2.2-1.56h1.041v3.2Zm6.9-7.41v-2.78h-9.322a3.933,3.933,0,0,1-.72-1.95,1.063,1.063,0,0,1,1.3-1.2h8.742v-2.78h-9.362a2.1,2.1,0,0,0-2.36,2.26,6.2,6.2,0,0,0,1.3,3.67h-1.14v2.78h11.562Zm0.16-14.51c0-3.33-1.66-4.37-4.261-4.37h-3.36c-2.6,0-4.261,1.04-4.261,4.37,0,3.36,1.66,4.4,4.261,4.4h3.36C153.784,1340.51,155.444,1339.47,155.444,1336.11Zm-1.58,0c0,1.61-1.24,1.61-2.541,1.61H147.7c-1.3,0-2.561,0-2.561-1.61,0-1.58,1.26-1.58,2.561-1.58h3.62C152.624,1334.53,153.864,1334.53,153.864,1336.11Zm1.42-5.87v-2.58h-9.422a3.95,3.95,0,0,1-.94-2.34,1.17,1.17,0,0,1,1.42-1.3h8.942v-2.55h-9.422a3.878,3.878,0,0,1-.94-2.34,1.17,1.17,0,0,1,1.42-1.3h8.942v-2.55H146.2a2.432,2.432,0,0,0-2.68,2.66,5.357,5.357,0,0,0,1.46,3.74,2.342,2.342,0,0,0-1.46,2.45,5.323,5.323,0,0,0,1.3,3.53h-1.1v2.58h11.562Zm0.16-20.8c0-3.07-1.42-4.24-3.74-4.24h-0.441v2.7h0.7c1.161,0,1.9.26,1.9,1.51,0,1.2-.6,1.69-2,1.69h-2.321v-5.93H148.6c-3.161,0-5.041.5-5.041,4.27,0,3.45,1.56,4.44,4.621,4.44h2.64C153.844,1313.88,155.444,1312.97,155.444,1309.44Zm-7.061,1.66h-0.62c-2,0-2.621-.29-2.621-1.64,0-1.38.78-1.56,2.2-1.56h1.041v3.2Zm6.9-7.41v-2.78h-9.322a3.933,3.933,0,0,1-.72-1.95,1.063,1.063,0,0,1,1.3-1.2h8.742v-2.78h-9.362a2.1,2.1,0,0,0-2.36,2.26,6.2,6.2,0,0,0,1.3,3.67h-1.14v2.78h11.562Zm0.16-13.08a3.1,3.1,0,0,0-1.86-3.04c0.54-.08,1.28-0.26,1.7-0.36v-2.55a16.038,16.038,0,0,1-2.78.26h-5.282c-2.38,0-3.66,1.14-3.66,4.11,0,3.06,1.18,4.47,3.74,4.52l0.08-2.76H146.8a1.425,1.425,0,0,1-1.64-1.58c0-1.3.68-1.51,2.081-1.51h0.82c0.98,3.22,1.82,5.93,4.7,5.93A2.879,2.879,0,0,0,155.444,1290.61Zm-1.84-1.09a1.293,1.293,0,0,1-1.5,1.33c-1.341,0-1.981-1.43-2.741-3.15h3.281A2.689,2.689,0,0,1,153.6,1289.52Zm1.68-6.5v-2.78h-16.2v2.78h16.2Zm0-9.57v-2.57h-9.422a3.974,3.974,0,0,1-.94-2.34,1.17,1.17,0,0,1,1.42-1.3h8.942v-2.55h-9.422a3.9,3.9,0,0,1-.94-2.34,1.17,1.17,0,0,1,1.42-1.3h8.942v-2.55H146.2a2.429,2.429,0,0,0-2.68,2.65,5.364,5.364,0,0,0,1.46,3.75,2.336,2.336,0,0,0-1.46,2.44,5.348,5.348,0,0,0,1.3,3.54h-1.1v2.57h11.562Zm0.16-19.34a3.093,3.093,0,0,0-1.86-3.04c0.54-.08,1.28-0.26,1.7-0.37v-2.55a16.038,16.038,0,0,1-2.78.26h-5.282c-2.38,0-3.66,1.15-3.66,4.11,0,3.07,1.18,4.47,3.74,4.53l0.08-2.76H146.8a1.428,1.428,0,0,1-1.64-1.59c0-1.3.68-1.51,2.081-1.51h0.82c0.98,3.23,1.82,5.93,4.7,5.93A2.87,2.87,0,0,0,155.444,1254.11Zm-1.84-1.09a1.291,1.291,0,0,1-1.5,1.32c-1.341,0-1.981-1.43-2.741-3.15h3.281A2.739,2.739,0,0,1,153.6,1253.02Zm1.68-6.24v-2.79h-9.322a3.866,3.866,0,0,1-.72-1.95,1.057,1.057,0,0,1,1.3-1.19h8.742v-2.78h-9.362a2.094,2.094,0,0,0-2.36,2.26,6.165,6.165,0,0,0,1.3,3.66h-1.14v2.79h11.562Zm3.581-14.28c0-3.51-.98-5.23-2.881-5.23-1.74,0-2.66,1.12-2.82,3.49L153,1233.1c-0.06.88-.22,1.25-0.52,1.25a1.649,1.649,0,0,1-.881-0.5,8.252,8.252,0,0,0,.141-1.43c0-3.14-1.641-4.16-4-4.16a5.91,5.91,0,0,0-2.121.47,12.018,12.018,0,0,1-.74-2.55l-1.38.7,0.14,0.42a6.156,6.156,0,0,0,1.2,2.03c-0.84.52-1.28,1.48-1.28,3.09,0,2.79,1.42,4.24,4.121,4.24a3.458,3.458,0,0,0,3.44-1.74c0.72,1.04,1.241,1.66,2.1,1.66,0.52,0,1.02-.46,1.24-1.45,0.4,1.12,1.12,2.16,2.221,2.16C158.245,1237.29,158.865,1235.23,158.865,1232.5Zm-8.622-.08c0,1.56-1.12,1.82-2.56,1.82-1.681,0-2.641-.28-2.641-1.84s1.02-1.77,2.641-1.77S150.243,1230.84,150.243,1232.42Zm6.942-.13c0,2.03-.34,2.66-1.041,2.66a2.2,2.2,0,0,1-1.44-1.12l0.16-2.37c0.12-1.64.48-2.05,1.18-2.05C156.845,1229.41,157.185,1230.32,157.185,1232.29Zm-1.741-8.86a3.093,3.093,0,0,0-1.86-3.04c0.54-.08,1.28-0.26,1.7-0.37v-2.55a16.038,16.038,0,0,1-2.78.26h-5.282c-2.38,0-3.66,1.15-3.66,4.11,0,3.07,1.18,4.47,3.74,4.53l0.08-2.76H146.8a1.428,1.428,0,0,1-1.64-1.59c0-1.3.68-1.5,2.081-1.5h0.82c0.98,3.22,1.82,5.92,4.7,5.92A2.87,2.87,0,0,0,155.444,1223.43Zm-1.84-1.09a1.291,1.291,0,0,1-1.5,1.32c-1.341,0-1.981-1.43-2.741-3.14h3.281A2.689,2.689,0,0,1,153.6,1222.34Zm1.68-12.9v-2.5l-8.161-2.02,8.161-2.06v-2.34l-11.562-2.5v2.29l8.482,1.56-8.482,2.01v2.13l8.522,2-8.522,1.56v2.29ZM142,1196.75v-2.78h-2.24v2.78H142Zm13.283,0v-2.78H143.722v2.78h11.562Zm0-4.99v-2.78h-16.2v2.78h16.2Zm0-4.91v-2.79h-16.2v2.79h16.2Zm0.16-14.95c0-2.97-2.28-3.72-4.741-3.72h-2.8c-1.381,0-4.341.28-4.341,3.43a4.12,4.12,0,0,0,1.08,2.83h-5.561v2.79h16.2v-2.79h-0.84A3.959,3.959,0,0,0,155.444,1171.9Zm-1.68.57a3.793,3.793,0,0,1-.52,1.97h-7.422a3.63,3.63,0,0,1-.58-1.87c0-1.43,1.22-1.61,2.661-1.61h2.8C152.4,1170.96,153.764,1171.04,153.764,1172.47Zm1.68-9.93c0-3.07-1.42-4.24-3.74-4.24h-0.441v2.7h0.7c1.161,0,1.9.26,1.9,1.51,0,1.2-.6,1.69-2,1.69h-2.321v-5.93H148.6c-3.161,0-5.041.5-5.041,4.27,0,3.45,1.56,4.44,4.621,4.44h2.64C153.844,1166.98,155.444,1166.07,155.444,1162.54Zm-7.061,1.66h-0.62c-2,0-2.621-.29-2.621-1.64,0-1.38.78-1.56,2.2-1.56h1.041v3.2Zm7.061-15.03a3.1,3.1,0,0,0-1.86-3.04c0.54-.08,1.28-0.26,1.7-0.36v-2.55a16.038,16.038,0,0,1-2.78.26h-5.282c-2.38,0-3.66,1.14-3.66,4.11,0,3.06,1.18,4.47,3.74,4.52l0.08-2.76H146.8a1.425,1.425,0,0,1-1.64-1.58c0-1.3.68-1.51,2.081-1.51h0.82c0.98,3.22,1.82,5.93,4.7,5.93A2.879,2.879,0,0,0,155.444,1149.17Zm-1.84-1.09a1.293,1.293,0,0,1-1.5,1.33c-1.341,0-1.981-1.43-2.741-3.15h3.281A2.689,2.689,0,0,1,153.6,1148.08Zm1.84-9.72a3.67,3.67,0,0,0-.9-2.42h0.74v-2.79h-16.2v2.79h5.381a4.046,4.046,0,0,0-.9,2.49c0,3.07,2.3,3.7,4.941,3.7h2.24C154.164,1142.13,155.444,1140.9,155.444,1138.36Zm-1.68-.71c0,1.49-1.22,1.69-2.841,1.69h-3.26c-1.321,0-2.421-.33-2.421-1.63a3.785,3.785,0,0,1,.5-1.77h7.582A3.876,3.876,0,0,1,153.764,1137.65Zm1.68-8.97a3.113,3.113,0,0,0-1.86-3.04c0.54-.08,1.28-0.26,1.7-0.36v-2.55a16.038,16.038,0,0,1-2.78.26h-5.282c-2.38,0-3.66,1.14-3.66,4.11,0,3.07,1.18,4.47,3.74,4.52l0.08-2.75H146.8a1.432,1.432,0,0,1-1.64-1.59c0-1.3.68-1.51,2.081-1.51h0.82c0.98,3.23,1.82,5.93,4.7,5.93A2.879,2.879,0,0,0,155.444,1128.68Zm-1.84-1.09a1.293,1.293,0,0,1-1.5,1.33c-1.341,0-1.981-1.43-2.741-3.15h3.281A2.737,2.737,0,0,1,153.6,1127.59Zm5.481-6.24v-2.78h-4.661a3.938,3.938,0,0,0,1.02-2.55c0-2.96-2.28-3.74-4.741-3.74h-2.8c-1.381,0-4.341.28-4.341,3.43a4.2,4.2,0,0,0,1.08,2.86h-0.92v2.78h15.363Zm-5.321-4.78a3.909,3.909,0,0,1-.52,2h-7.4a3.569,3.569,0,0,1-.6-1.9c0-1.43,1.22-1.61,2.661-1.61h2.8C152.4,1115.06,153.764,1115.14,153.764,1116.57Zm1.68-9.78a15.465,15.465,0,0,0-.12-1.92h-1.58a9.669,9.669,0,0,1,.06,1.01c0,1.09-.36,1.38-1.26,1.38h-7.4v-2.42h-1.42v2.42h-3.381v2.78h3.381v1.59h1.42v-1.59h7.542C154.364,1110.04,155.444,1109.16,155.444,1106.79Zm0-7.12c0-3.07-1.42-4.24-3.74-4.24h-0.441v2.7h0.7c1.161,0,1.9.26,1.9,1.51,0,1.2-.6,1.69-2,1.69h-2.321v-5.93H148.6c-3.161,0-5.041.5-5.041,4.27,0,3.46,1.56,4.44,4.621,4.44h2.64C153.844,1104.11,155.444,1103.2,155.444,1099.67Zm-7.061,1.66h-0.62c-2,0-2.621-.28-2.621-1.64s0.78-1.56,2.2-1.56h1.041v3.2Zm7.061-10.89a3.67,3.67,0,0,0-.9-2.42h0.74v-2.78h-16.2v2.78h5.381a4.052,4.052,0,0,0-.9,2.5c0,3.06,2.3,3.69,4.941,3.69h2.24C154.164,1094.21,155.444,1092.99,155.444,1090.44Zm-1.68-.7c0,1.48-1.22,1.69-2.841,1.69h-3.26c-1.321,0-2.421-.34-2.421-1.64a3.785,3.785,0,0,1,.5-1.77h7.582A3.915,3.915,0,0,1,153.764,1089.74ZM142,1078.37v-2.78h-2.24v2.78H142Zm13.283,0v-2.78H143.722v2.78h11.562Zm0-4.73v-2.78h-9.322a3.9,3.9,0,0,1-.72-1.95,1.063,1.063,0,0,1,1.3-1.2h8.742v-2.78h-9.362a2.1,2.1,0,0,0-2.36,2.26,6.2,6.2,0,0,0,1.3,3.67h-1.14v2.78h11.562Zm0.16-14.38a15.465,15.465,0,0,0-.12-1.92h-1.58a9.669,9.669,0,0,1,.06,1.01c0,1.1-.36,1.38-1.26,1.38h-7.4v-2.42h-1.42v2.42h-3.381v2.78h3.381v1.59h1.42v-1.59h7.542C154.364,1062.51,155.444,1061.63,155.444,1059.26Zm0-7.09c0-3.33-1.66-4.37-4.261-4.37h-3.36c-2.6,0-4.261,1.04-4.261,4.37,0,3.35,1.66,4.39,4.261,4.39h3.36C153.784,1056.56,155.444,1055.52,155.444,1052.17Zm-1.58,0c0,1.61-1.24,1.61-2.541,1.61H147.7c-1.3,0-2.561,0-2.561-1.61,0-1.59,1.26-1.59,2.561-1.59h3.62C152.624,1050.58,153.864,1050.58,153.864,1052.17Zm1.58-13.5a3.1,3.1,0,0,0-1.86-3.04c0.54-.08,1.28-0.26,1.7-0.37v-2.54a16.038,16.038,0,0,1-2.78.26h-5.282c-2.38,0-3.66,1.14-3.66,4.11,0,3.06,1.18,4.47,3.74,4.52l0.08-2.76H146.8a1.425,1.425,0,0,1-1.64-1.58c0-1.3.68-1.51,2.081-1.51h0.82c0.98,3.22,1.82,5.93,4.7,5.93A2.879,2.879,0,0,0,155.444,1038.67Zm-1.84-1.09a1.293,1.293,0,0,1-1.5,1.33c-1.341,0-1.981-1.43-2.741-3.15h3.281A2.689,2.689,0,0,1,153.6,1037.58Zm1.68-6.24v-2.78h-9.322a3.933,3.933,0,0,1-.72-1.95,1.063,1.063,0,0,1,1.3-1.2h8.742v-2.78h-9.362a2.1,2.1,0,0,0-2.36,2.26,6.2,6.2,0,0,0,1.3,3.67h-1.14v2.78h11.562Zm0.16-17.99a3.093,3.093,0,0,0-1.86-3.04c0.54-.08,1.28-0.26,1.7-0.37v-2.55a16.038,16.038,0,0,1-2.78.26h-5.282c-2.38,0-3.66,1.15-3.66,4.11,0,3.07,1.18,4.47,3.74,4.53l0.08-2.76H146.8a1.428,1.428,0,0,1-1.64-1.59c0-1.3.68-1.5,2.081-1.5h0.82c0.98,3.22,1.82,5.92,4.7,5.92A2.87,2.87,0,0,0,155.444,1013.35Zm-1.84-1.09a1.291,1.291,0,0,1-1.5,1.32c-1.341,0-1.981-1.43-2.741-3.14h3.281A2.689,2.689,0,0,1,153.6,1012.26Zm1.68-6.24v-2.79h-9.322a3.866,3.866,0,0,1-.72-1.95,1.057,1.057,0,0,1,1.3-1.19h8.742v-2.785h-9.362a2.1,2.1,0,0,0-2.36,2.262,6.166,6.166,0,0,0,1.3,3.663h-1.14v2.79h11.562ZM142,995.46v-2.783h-2.24v2.783H142Zm13.283,0v-2.783H143.722v2.783h11.562Zm0-4.733v-2.574h-9.422a3.96,3.96,0,0,1-.94-2.34,1.17,1.17,0,0,1,1.42-1.3h8.942v-2.548h-9.422a3.9,3.9,0,0,1-.94-2.34,1.17,1.17,0,0,1,1.42-1.3h8.942v-2.548H146.2a2.428,2.428,0,0,0-2.68,2.652,5.346,5.346,0,0,0,1.46,3.744,2.34,2.34,0,0,0-1.46,2.444,5.338,5.338,0,0,0,1.3,3.536h-1.1v2.574h11.562Zm0.16-20.8c0-3.068-1.42-4.238-3.74-4.238h-0.441v2.7h0.7c1.161,0,1.9.26,1.9,1.508,0,1.2-.6,1.69-2,1.69h-2.321v-5.928H148.6c-3.161,0-5.041.494-5.041,4.264,0,3.458,1.56,4.446,4.621,4.446h2.64C153.844,974.373,155.444,973.464,155.444,969.927Zm-7.061,1.664h-0.62c-2,0-2.621-.286-2.621-1.638,0-1.378.78-1.56,2.2-1.56h1.041v3.2ZM142,959.085V956.3h-2.24v2.782H142Zm13.283,0V956.3H143.722v2.782h11.562Zm0-4.732v-2.782h-9.322a3.9,3.9,0,0,1-.72-1.95,1.06,1.06,0,0,1,1.3-1.2h8.742v-2.782h-9.362a2.1,2.1,0,0,0-2.36,2.262,6.188,6.188,0,0,0,1.3,3.666h-1.14v2.782h11.562Zm0.38-14.065v-1.4c0-3.64-1.26-4.576-4.041-4.576H139.081v2.912h12.5c2.041,0,2.461.52,2.461,3.069h1.62Zm-0.22-10.167a6.188,6.188,0,0,0-1.3-3.666h1.14v-2.782H143.722v2.782h9.322a3.9,3.9,0,0,1,.72,1.95,1.073,1.073,0,0,1-1.32,1.2h-8.722v2.783h9.362A2.1,2.1,0,0,0,155.444,930.121Zm-0.16-8.5v-2.782h-16.2v2.782h16.2Zm2.9-4.419v-0.338c0-2.731-.58-4.317-2.261-4.811l-12.2-3.588v2.808l8.642,1.95-8.642,2.028v2.808l9.842-3.016a16.033,16.033,0,0,1,2.12-.572c0.681,0,.86.7,0.86,2.731h1.641Zm-2.9-13.963v-9.932h-1.8v6.656l-5.681-4.836c-1.441-1.222-2.6-2.314-4.681-2.314-2.621,0-4.181,1.664-4.181,5.044,0,3.744,1.82,5.148,4.721,5.148h0.56v-2.782h-0.54c-1.541,0-2.981-.494-2.981-2.5,0-1.56.92-2.106,2.4-2.106,1.82,0,2.8,1.092,4.24,2.262l6.422,5.356h1.52Zm0.18-17.056c0-3.588-1.98-5.2-4.781-5.2H143.7c-2.841,0-4.761,1.586-4.761,5.2,0,3.666,1.92,5.226,4.761,5.226h6.981C153.464,891.407,155.464,889.77,155.464,886.181Zm-1.76,0c0,1.95-1.5,2.418-3,2.418h-7.021c-1.561,0-3-.39-3-2.418,0-2,1.44-2.392,3-2.392H150.7C152.2,883.789,153.7,884.231,153.7,886.181Zm1.58-6.734v-9.932h-1.8v6.656l-5.681-4.836c-1.441-1.222-2.6-2.314-4.681-2.314-2.621,0-4.181,1.664-4.181,5.044,0,3.745,1.82,5.148,4.721,5.148h0.56v-2.782h-0.54c-1.541,0-2.981-.494-2.981-2.5,0-1.56.92-2.106,2.4-2.106,1.82,0,2.8,1.092,4.24,2.262l6.422,5.356h1.52Zm0.16-16.64c0-4.134-2.52-5.226-5.841-5.226-2.781,0-4.8,1.066-4.8,4.472a4.784,4.784,0,0,0,.9,3.042l-4.481-.182v-6.552h-2.14v9.074h8.682v-2.366a2.635,2.635,0,0,1-1.341-2.34c0-2.106,1.281-2.366,3.461-2.366,2.2,0,3.861.13,3.861,2.392,0,2.08-1.54,2.366-3,2.366V867.9C153.684,867.9,155.444,866.6,155.444,862.807Zm-3.62-7.2v-0.988l-12.743-.936v2.808Zm3.46,0.884v-2.808h-2.2v2.808h2.2Zm24,563.63v-2.94h-7.541v-2.31c0-3.44-1.6-5.18-4.181-5.18-2.821,0-4.481,1.43-4.481,5.2v5.23h16.2Zm-9.162-2.94H164.7v-1.38c0-2.94.58-3.33,2.881-3.33,2,0,2.54.84,2.54,3.36v1.35Zm9.162-8.35v-2.78h-8.442a2.578,2.578,0,0,1-1.12-2.23,5.853,5.853,0,0,1,.24-1.54H167.6a3.884,3.884,0,0,0-.02.44,3.987,3.987,0,0,0,1.78,3.33h-1.64v2.78h11.562Zm0.16-11.36c0-3.33-1.66-4.37-4.261-4.37h-3.36c-2.6,0-4.261,1.04-4.261,4.37,0,3.36,1.66,4.4,4.261,4.4h3.36C177.784,1401.87,179.444,1400.83,179.444,1397.47Zm-1.58,0c0,1.61-1.24,1.61-2.541,1.61H171.7c-1.3,0-2.561,0-2.561-1.61,0-1.59,1.26-1.59,2.561-1.59h3.62C176.624,1395.88,177.864,1395.88,177.864,1397.47Zm1.58-9.36a3.67,3.67,0,0,0-.9-2.42h0.74v-2.78h-16.2v2.78h5.381a4.075,4.075,0,0,0-.9,2.5c0,3.07,2.3,3.69,4.941,3.69h2.24C178.164,1391.88,179.444,1390.66,179.444,1388.11Zm-1.68-.7c0,1.48-1.22,1.69-2.841,1.69h-3.261c-1.32,0-2.42-.34-2.42-1.64a3.854,3.854,0,0,1,.5-1.77h7.582A3.915,3.915,0,0,1,177.764,1387.41Zm1.68-8.42a6.2,6.2,0,0,0-1.3-3.67h1.14v-2.78H167.722v2.78h9.322a3.9,3.9,0,0,1,.72,1.95,1.077,1.077,0,0,1-1.32,1.2h-8.722v2.78h9.362A2.1,2.1,0,0,0,179.444,1378.99Zm0-12.35c0-3.23-1.38-4.11-3.721-4.11h-0.8v2.52h0.941c1.18,0,2,.16,2,1.53,0,1.25-.5,1.67-2.481,1.67h-3.64c-1.961,0-2.6-.26-2.6-1.64,0-1.22.54-1.56,2.04-1.56h0.7v-2.52H171.2c-2.38,0-3.64.83-3.64,4.11,0,3.64,1.72,4.39,4.621,4.39h2.66C177.624,1371.03,179.444,1370.33,179.444,1366.64Zm0-9.55a15.465,15.465,0,0,0-.12-1.92h-1.58a9.669,9.669,0,0,1,.06,1.01c0,1.1-.36,1.38-1.26,1.38h-7.4v-2.42h-1.42v2.42h-3.381v2.78h3.381v1.59h1.42v-1.59h7.542C178.364,1360.34,179.444,1359.46,179.444,1357.09ZM166,1353.95v-2.78h-2.24v2.78H166Zm13.283,0v-2.78H167.722v2.78h11.562Zm0.16-8.87c0-3.33-1.66-4.37-4.261-4.37h-3.36c-2.6,0-4.261,1.04-4.261,4.37,0,3.36,1.66,4.4,4.261,4.4h3.36C177.784,1349.48,179.444,1348.44,179.444,1345.08Zm-1.58,0c0,1.61-1.24,1.61-2.541,1.61H171.7c-1.3,0-2.561,0-2.561-1.61,0-1.58,1.26-1.58,2.561-1.58h3.62C176.624,1343.5,177.864,1343.5,177.864,1345.08Zm1.42-5.87v-2.79h-9.322a3.866,3.866,0,0,1-.72-1.95,1.057,1.057,0,0,1,1.3-1.19h8.742v-2.79h-9.362a2.1,2.1,0,0,0-2.36,2.27,6.165,6.165,0,0,0,1.3,3.66h-1.14v2.79h11.562Zm0-17.03v-2.5l-8.162-2.03,8.162-2.05v-2.34l-11.562-2.5v2.29l8.481,1.56-8.481,2v2.13l8.521,2.01-8.521,1.56v2.28ZM166,1309.49v-2.78h-2.24v2.78H166Zm13.283,0v-2.78H167.722v2.78h11.562Zm0-4.99v-2.79h-16.2v2.79h16.2Zm0-4.92v-2.78h-16.2v2.78h16.2Zm0.16-14.95c0-2.96-2.28-3.72-4.741-3.72h-2.8c-1.381,0-4.341.29-4.341,3.44a4.12,4.12,0,0,0,1.08,2.83h-5.561v2.78h16.2v-2.78h-0.84A3.964,3.964,0,0,0,179.444,1284.63Zm-1.68.57a3.8,3.8,0,0,1-.52,1.98h-7.422a3.63,3.63,0,0,1-.58-1.87c0-1.43,1.22-1.61,2.661-1.61h2.8C176.4,1283.7,177.764,1283.77,177.764,1285.2Zm1.68-9.93c0-3.07-1.42-4.24-3.741-4.24h-0.44v2.71h0.7c1.161,0,1.9.26,1.9,1.51,0,1.19-.6,1.69-2,1.69h-2.321v-5.93H172.6c-3.161,0-5.041.49-5.041,4.26,0,3.46,1.56,4.45,4.621,4.45h2.64C177.844,1279.72,179.444,1278.81,179.444,1275.27Zm-7.061,1.67h-0.62c-2,0-2.621-.29-2.621-1.64,0-1.38.78-1.56,2.2-1.56h1.041v3.2Zm6.9-12.41v-2.78H170a3.947,3.947,0,0,1-.76-2.03,1.057,1.057,0,0,1,1.3-1.19h8.742v-2.79h-9.362a2.093,2.093,0,0,0-2.36,2.24,6.264,6.264,0,0,0,1.36,3.77h-5.841v2.78h16.2Zm0.16-14.61c0-3.07-1.42-4.24-3.741-4.24h-0.44v2.71h0.7c1.161,0,1.9.26,1.9,1.51,0,1.19-.6,1.69-2,1.69h-2.321v-5.93H172.6c-3.161,0-5.041.49-5.041,4.26,0,3.46,1.56,4.45,4.621,4.45h2.64C177.844,1254.37,179.444,1253.46,179.444,1249.92Zm-7.061,1.67h-0.62c-2,0-2.621-.29-2.621-1.64,0-1.38.78-1.56,2.2-1.56h1.041v3.2Zm7.061-10.12a3.1,3.1,0,0,0-1.86-3.04c0.54-.08,1.28-0.26,1.7-0.36v-2.55a16.038,16.038,0,0,1-2.78.26h-5.282c-2.38,0-3.66,1.14-3.66,4.11,0,3.06,1.18,4.47,3.74,4.52l0.08-2.76H170.8a1.425,1.425,0,0,1-1.64-1.58c0-1.3.68-1.51,2.081-1.51h0.82c0.98,3.22,1.82,5.93,4.7,5.93A2.879,2.879,0,0,0,179.444,1241.47Zm-1.84-1.09a1.293,1.293,0,0,1-1.5,1.33c-1.341,0-1.981-1.43-2.741-3.15h3.281A2.689,2.689,0,0,1,177.6,1240.38Zm1.84-9.72a3.67,3.67,0,0,0-.9-2.42h0.74v-2.78h-16.2v2.78h5.381a4.046,4.046,0,0,0-.9,2.49c0,3.07,2.3,3.7,4.941,3.7h2.24C178.164,1234.43,179.444,1233.2,179.444,1230.66Zm-1.68-.71c0,1.49-1.22,1.69-2.841,1.69h-3.261c-1.32,0-2.42-.33-2.42-1.63a3.785,3.785,0,0,1,.5-1.77h7.582A3.876,3.876,0,0,1,177.764,1229.95Zm1.68-10.42c0-3.07-1.42-4.24-3.741-4.24h-0.44v2.7h0.7c1.161,0,1.9.26,1.9,1.51,0,1.2-.6,1.69-2,1.69h-2.321v-5.93H172.6c-3.161,0-5.041.5-5.041,4.27,0,3.46,1.56,4.44,4.621,4.44h2.64C177.844,1223.97,179.444,1223.06,179.444,1219.53Zm-7.061,1.66h-0.62c-2,0-2.621-.28-2.621-1.64s0.78-1.56,2.2-1.56h1.041v3.2Zm7.061-10.89a3.67,3.67,0,0,0-.9-2.42h0.74v-2.78h-16.2v2.78h5.381a4.052,4.052,0,0,0-.9,2.5c0,3.06,2.3,3.69,4.941,3.69h2.24C178.164,1214.07,179.444,1212.85,179.444,1210.3Zm-1.68-.7c0,1.48-1.22,1.69-2.841,1.69h-3.261c-1.32,0-2.42-.34-2.42-1.64a3.785,3.785,0,0,1,.5-1.77h7.582A3.915,3.915,0,0,1,177.764,1209.6Zm1.68-16.57c0-2.96-2.28-3.72-4.741-3.72h-2.8c-1.381,0-4.341.29-4.341,3.44a4.12,4.12,0,0,0,1.08,2.83h-5.561v2.78h16.2v-2.78h-0.84A3.964,3.964,0,0,0,179.444,1193.03Zm-1.68.58a3.793,3.793,0,0,1-.52,1.97h-7.422a3.63,3.63,0,0,1-.58-1.87c0-1.43,1.22-1.61,2.661-1.61h2.8C176.4,1192.1,177.764,1192.18,177.764,1193.61Zm4.421-5.54v-0.34c0-2.73-.58-4.32-2.261-4.81l-12.2-3.59v2.81l8.642,1.95-8.642,2.03v2.81l9.842-3.02a15.286,15.286,0,0,1,2.12-.57c0.68,0,.86.7,0.86,2.73h1.641Zm-2.9-14.3v-2.78h-9.322a3.933,3.933,0,0,1-.72-1.95,1.06,1.06,0,0,1,1.3-1.2h8.742v-2.78h-9.362a2.094,2.094,0,0,0-2.36,2.26,6.2,6.2,0,0,0,1.3,3.67h-1.14v2.78h11.562Zm0.16-14.51c0-3.33-1.66-4.37-4.261-4.37h-3.36c-2.6,0-4.261,1.04-4.261,4.37,0,3.35,1.66,4.39,4.261,4.39h3.36C177.784,1163.65,179.444,1162.61,179.444,1159.26Zm-1.58,0c0,1.61-1.24,1.61-2.541,1.61H171.7c-1.3,0-2.561,0-2.561-1.61,0-1.59,1.26-1.59,2.561-1.59h3.62C176.624,1157.67,177.864,1157.67,177.864,1159.26Zm1.42-5.88v-2.78h-9.322a3.866,3.866,0,0,1-.72-1.95,1.057,1.057,0,0,1,1.3-1.19h8.742v-2.79h-9.362a2.1,2.1,0,0,0-2.36,2.26,6.2,6.2,0,0,0,1.3,3.67h-1.14v2.78h11.562Zm0.16-14.53c0-3.07-1.42-4.24-3.741-4.24h-0.44v2.71h0.7c1.161,0,1.9.26,1.9,1.5,0,1.2-.6,1.69-2,1.69h-2.321v-5.93H172.6c-3.161,0-5.041.5-5.041,4.27,0,3.46,1.56,4.45,4.621,4.45h2.64C177.844,1143.3,179.444,1142.39,179.444,1138.85Zm-7.061,1.66h-0.62c-2,0-2.621-.28-2.621-1.63,0-1.38.78-1.56,2.2-1.56h1.041v3.19Zm7.061-16.45c0-3.33-1.66-4.37-4.261-4.37h-3.36c-2.6,0-4.261,1.04-4.261,4.37,0,3.35,1.66,4.39,4.261,4.39h3.36C177.784,1128.45,179.444,1127.41,179.444,1124.06Zm-1.58,0c0,1.61-1.24,1.61-2.541,1.61H171.7c-1.3,0-2.561,0-2.561-1.61,0-1.59,1.26-1.59,2.561-1.59h3.62C176.624,1122.47,177.864,1122.47,177.864,1124.06Zm1.58-9.88a15.505,15.505,0,0,0-.12-1.93h-1.58a9.848,9.848,0,0,1,.06,1.02c0,1.09-.36,1.37-1.26,1.37h-7.4v-2.41h-1.42v2.41h-3.381v2.79h3.381v1.58h1.42v-1.58h7.542C178.364,1117.43,179.444,1116.54,179.444,1114.18Zm-0.16-3.05v-2.78H170a3.947,3.947,0,0,1-.76-2.03,1.057,1.057,0,0,1,1.3-1.19h8.742v-2.79h-9.362a2.093,2.093,0,0,0-2.36,2.24,6.264,6.264,0,0,0,1.36,3.77h-5.841v2.78h16.2Zm0.16-14.61c0-3.07-1.42-4.24-3.741-4.24h-0.44v2.71h0.7c1.161,0,1.9.26,1.9,1.51,0,1.19-.6,1.69-2,1.69h-2.321v-5.93H172.6c-3.161,0-5.041.49-5.041,4.26,0,3.46,1.56,4.45,4.621,4.45h2.64C177.844,1100.97,179.444,1100.06,179.444,1096.52Zm-7.061,1.67h-0.62c-2,0-2.621-.29-2.621-1.64,0-1.38.78-1.56,2.2-1.56h1.041v3.2Zm6.9-7.49v-2.78h-8.442a2.6,2.6,0,0,1-1.12-2.24,5.708,5.708,0,0,1,.24-1.53H167.6a3.8,3.8,0,0,0-.02.44,4,4,0,0,0,1.78,3.33h-1.64v2.78h11.562Zm0.16-16.15a15.465,15.465,0,0,0-.12-1.92h-1.58a9.669,9.669,0,0,1,.06,1.01c0,1.09-.36,1.38-1.26,1.38h-7.4v-2.42h-1.42v2.42h-3.381v2.78h3.381v1.59h1.42v-1.59h7.542C178.364,1077.8,179.444,1076.92,179.444,1074.55Zm-0.16-3.04v-2.78H170a3.98,3.98,0,0,1-.76-2.03,1.063,1.063,0,0,1,1.3-1.2h8.742v-2.78h-9.362a2.093,2.093,0,0,0-2.36,2.24,6.312,6.312,0,0,0,1.36,3.77h-5.841v2.78h16.2Zm0.16-13.16a3.113,3.113,0,0,0-1.86-3.04c0.54-.08,1.28-0.26,1.7-0.36v-2.55a16.038,16.038,0,0,1-2.78.26h-5.282c-2.38,0-3.66,1.14-3.66,4.11,0,3.07,1.18,4.47,3.74,4.52l0.08-2.75H170.8a1.432,1.432,0,0,1-1.64-1.59c0-1.3.68-1.51,2.081-1.51h0.82c0.98,3.23,1.82,5.93,4.7,5.93A2.879,2.879,0,0,0,179.444,1058.35Zm-1.84-1.09a1.293,1.293,0,0,1-1.5,1.33c-1.341,0-1.981-1.43-2.741-3.15h3.281A2.737,2.737,0,0,1,177.6,1057.26Zm1.68-6.24v-2.78h-9.322a3.9,3.9,0,0,1-.72-1.95,1.063,1.063,0,0,1,1.3-1.2h8.742v-2.78h-9.362a2.1,2.1,0,0,0-2.36,2.26,6.2,6.2,0,0,0,1.3,3.67h-1.14v2.78h11.562Zm0.16-20.67c0-2.96-2.28-3.72-4.741-3.72h-2.8c-1.381,0-4.341.29-4.341,3.44a4.12,4.12,0,0,0,1.08,2.83h-5.561v2.78h16.2v-2.78h-0.84A3.964,3.964,0,0,0,179.444,1030.35Zm-1.68.57a3.8,3.8,0,0,1-.52,1.98h-7.422a3.63,3.63,0,0,1-.58-1.87c0-1.43,1.22-1.61,2.661-1.61h2.8C176.4,1029.42,177.764,1029.49,177.764,1030.92Zm1.68-9.9c0-3.33-1.66-4.37-4.261-4.37h-3.36c-2.6,0-4.261,1.04-4.261,4.37,0,3.35,1.66,4.39,4.261,4.39h3.36C177.784,1025.41,179.444,1024.37,179.444,1021.02Zm-1.58,0c0,1.61-1.24,1.61-2.541,1.61H171.7c-1.3,0-2.561,0-2.561-1.61,0-1.59,1.26-1.59,2.561-1.59h3.62C176.624,1019.43,177.864,1019.43,177.864,1021.02Zm1.42-5.88v-2.78h-9.322a3.9,3.9,0,0,1-.72-1.95,1.063,1.063,0,0,1,1.3-1.2h8.742v-2.78h-9.362a2.1,2.1,0,0,0-2.36,2.26,6.2,6.2,0,0,0,1.3,3.67h-1.14v2.78h11.562Zm0.16-14.53c0-3.071-1.42-4.241-3.741-4.241h-0.44v2.7h0.7c1.161,0,1.9.26,1.9,1.507,0,1.2-.6,1.69-2,1.69h-2.321v-5.927H172.6c-3.161,0-5.041.494-5.041,4.267,0,3.46,1.56,4.44,4.621,4.44h2.64C177.844,1005.05,179.444,1004.14,179.444,1000.61Zm-7.061,1.66h-0.62c-2,0-2.621-.28-2.621-1.64s0.78-1.557,2.2-1.557h1.041v3.2Zm7.061-10.893c0-2.47-.98-4.16-2.96-4.16-1.481,0-2.361,1.066-3.121,2.132L171.483,992a1.423,1.423,0,0,1-1.161.753,1.309,1.309,0,0,1-1.18-1.482c0-1.2.8-1.638,2-1.846l-0.54-1.872c-1.68.182-3.04,1.43-3.04,3.822,0,2.34,1.02,3.875,2.84,3.875a3.282,3.282,0,0,0,2.821-1.847l1.7-2.574a2.066,2.066,0,0,1,1.721-1.222,1.286,1.286,0,0,1,1.22,1.534c0,1.274-.72,1.9-2.2,2.158l0.54,2.314C178.144,995.408,179.444,993.847,179.444,991.377Zm-0.16-11V977.6H169.3v-3.354h9.982v-2.782H167.722V977.6h-0.961c-1.06,0-1.48-.234-1.48-1.326a5.81,5.81,0,0,1,.08-0.962h-1.6a13.943,13.943,0,0,0-.08,1.508c0,2.731,1.14,3.563,3.441,3.563h0.6v1.793h1.58V980.38h9.982ZM166,973.983v-2.548h-2.24v2.548H166Zm13.283-4.706V966.5h-16.2v2.781h16.2Zm0-4.654v-2.574h-9.422a3.96,3.96,0,0,1-.94-2.34,1.17,1.17,0,0,1,1.42-1.3h8.942v-2.548h-9.422a3.9,3.9,0,0,1-.94-2.34,1.17,1.17,0,0,1,1.42-1.3h8.942v-2.548H170.2a2.428,2.428,0,0,0-2.68,2.652,5.346,5.346,0,0,0,1.46,3.744,2.34,2.34,0,0,0-1.46,2.444,5.338,5.338,0,0,0,1.3,3.536h-1.1v2.574h11.562Zm0-16.51v-2.782H176.9v2.782h2.38Z" transform="translate(-90.938 -853.688)"/>
</svg>
