<svg xmlns="http://www.w3.org/2000/svg" width="416" height="136.82" viewBox="0 0 416 136.82">
  <defs>
    <style>
      .cls-1 {
        fill-rule: evenodd;
        fill: #ffffff;
      }
    </style>
  </defs>
  <path id="ttl_about.svg" class="cls-1" d="M259.865,3063.94h21.982c-0.672,13.44-8.351,21.68-24.958,28.72l12.959,13.92c20.062-10,29.374-23.04,30.718-42.64h21.79c-0.288,11.52-1.056,18.48-2.016,20.96-1.536,3.84-4.7,5.12-11.9,5.12-2.4,0-4.032,0-6.911-.16l3.359,16.48c16.127-.08,25.919-2,30.718-7.92,4.9-6.16,4.992-19.44,4.992-49.28H301.814v-14.96H282.807v14.96H259.865v14.8Zm67.291-31.84a71.431,71.431,0,0,1,4.8,10.16h11.9a63.984,63.984,0,0,0-5.28-10.16H327.156Zm-12.479,2.56a67.819,67.819,0,0,1,5.183,10.08h10.464a39.171,39.171,0,0,0-5.28-10.08H314.677Zm81.149,26.16v-8.72c6.815-.88,14.5-2.32,23.23-4.32l-7.775-13.52c-17.375,4.08-38.494,5.92-63.74,6.32l3.936,14.56,25.726-1.2v6.88H341.4v14.8h35.133c-2.016,10.48-11.039,16-28.222,17.92l10.079,14.8c24.287-4.4,36.19-14.72,37.054-32.72h31.87v-14.8H395.826Zm39.67,47.68c26.3-9.44,36.381-24.56,36.381-45.28,0-.88,0-2.56-0.1-3.92H451.623c0.1,1.6.1,3.28,0.1,4.48,0,13.6-6.624,23.68-27.742,30.16Zm50.972-53.92c-1.344,5.36-5.087,9.84-11.615,13.92l14.687,12c13.631-9.92,19.775-23.36,20.063-41.44H424.745v15.52h61.723ZM549.7,3037.7l-18.238-3.76c-4.416,13.6-12.191,23.04-25.438,29.84l11.807,12.88c9.023-4.88,16.031-10.72,21.214-17.68H568.8c-4.608,19.6-20.446,29.36-51.068,33.76l7.967,15.44c43.389-7.44,61.82-25.28,63.644-62.4H546.432Zm53.119,39.2c9.216-6.88,15.647-13.68,19.775-20.16h29.758a39.914,39.914,0,0,1-5.184,14.96,151.364,151.364,0,0,0-20.158-10.16l-9.888,11.6a151.05,151.05,0,0,1,19.2,9.92c-7.583,5.2-19.583,7.92-36.381,9.28l6.911,15.6c46.077-6.24,65.083-25.52,66.043-65.68h-43L632,3036.1l-18.43-2.8c-2.88,12.72-10.848,23.04-24.287,31.68Zm-337.478,45.46,8.448,15.96c-9.984,4.37-14.975,9.75-14.975,16.08,0,10.13,10.815,14.5,32.829,14.5a158.532,158.532,0,0,0,16.9-1.06l-0.9-11.2a157.69,157.69,0,0,1-20.926,1.4c-9.536,0-14.271-1.35-14.271-4.37,0-4.54,11.839-8.51,35.261-14.67l-5.247-10.48L285.3,3133.9l-7.232-14.78Zm81.912,32.99c-0.32,1.73-1.536,2.63-3.52,2.63-2.24,0-3.648-.84-3.648-1.9s1.152-1.8,2.944-1.8A11.71,11.71,0,0,1,347.248,3155.35Zm19.647-26.99h-7.3v-8.18H347.44v8.18H329.521v10.13H347.44v7.9a26.708,26.708,0,0,0-5.184-.45c-9.215,0-14.015,3.81-14.015,10.81,0,7.11,5.952,11.76,16.447,11.76,7.232,0,11.9-2.69,13.951-7.9l6.016,3.81,3.519-10.58a49.934,49.934,0,0,0-8.575-4.15v-11.2h7.3v-10.13Zm-54.589-8.07c-0.575,11.26-1.343,20.78-1.343,28.51a105.606,105.606,0,0,0,1.663,18.76l12.1-.62a89.322,89.322,0,0,1-1.6-18.7c0-7,.448-16.19,1.408-27.44Zm84.305,35.45H383.876v11.03h12.735v-11.03Zm-12.223-18.42-0.256-1.91c0-3.19,2.88-5.77,6.912-5.77,3.583,0,5.951,1.85,5.951,3.98,0,3.75-5.055,5.38-8.447,8.23-3.264,2.8-4.544,5.88-4.544,11.09h12.287c0.128-4.26,2.048-6.27,5.5-8.74,4.736-3.36,7.679-6.1,7.679-11.08,0-7.62-7.487-13.5-18.878-13.5-11.263,0-19.2,7.17-19.2,16.13a10.727,10.727,0,0,0,.128,1.57h12.863Z" transform="translate(-256.875 -3032.09)"/>
</svg>
